<?xml version="1.0" encoding="UTF-8"?>
<svg id="Layer_1" data-name="Layer 1" xmlns="http://www.w3.org/2000/svg" viewBox="0 0 640 640">
  <defs>
    <style>
      .cls-1 {
        fill: #fff3e7;
      }

      .cls-1, .cls-2, .cls-3, .cls-4 {
        stroke-width: 0px;
      }

      .cls-2 {
        fill: #3f3f3f;
      }

      .cls-3 {
        fill: #db6c51;
      }

      .cls-4 {
        fill: #db8451;
      }
    </style>
  </defs>
  <rect class="cls-2" width="640" height="640"/>
  <g>
    <path class="cls-3" d="m160.97,117.66l.75.81c-.95,13.15,6.56,32.77,14.5,42.49l-.6.56c-5.23,1.62-10.57,5.4-15.15,8.31-28.52,18.08-61.66,52.53-77.59,83.25l-5.22,9.03c-4.34-11.08,2.39-40.13,5.67-50.87,12.22-40,40.75-73.97,77.65-93.59Z"/>
    <path class="cls-4" d="m369.34,417.68l4.02-.2c3.67,4.84,12.25,18.82,13.52,24.18l.12.53c.28,1.2.22,2.1.03,3.32l-.1.59c-.78,4.98-2.88,9.79-4.38,14.6l-27.51,88.48c-.59,2.04-.99,4.19-1.72,6.18l15.32.28c2.62,0,5.73-.28,8.28.35,13.58,3.32,11.74,23.52-5.12,23.98l-112.74.04c-4.3,0-9.17.45-13.41-.21-11.06-1.72-15.68-24.15,5.53-24.17h43.25s12.87.03,12.87.03c.68-2.18.23-5.74.23-8.08v-91.01c0-12.76-.58-25.77.2-38.49,5.2,1.25,11.01,1.1,16.34,1.3,6.81.25,7.86-1.3,7.9,5.45l.06,102.3c0,4.62-.24,9.32.53,13.89l28.51-96.3c.84-2.91-8.58-22.21-10.35-25.41l18.64-1.64Z"/>
    <path class="cls-1" d="m214.54,79.8c24.18-2.04,37.72,15.89,45.51,36.69,14.17,37.82,5.41,83.94-14.77,118.29-1.6,2.72-3.56,5.23-4.86,8.11l-.21.47c-2.46,5.42,1.85,11.67,7.41,12.49,4.36.64,9.48-4.07,12.84-6.4,37.97-26.32,86.37-32.62,129.92-17.82,15.9,5.4,30.67,14.12,45.82,21.29l52.38,22.2c13.31,4.81,22.79,3.6,36.79,1.46l44.31-7.4c3.56-.53,8.36-1.65,11.18,1.4-2.7,4.86-8.72,9.23-12.98,12.75l-56.62,46.9-21.98,17.99c-13.31,10.9-26.55,21.07-42.2,28.54-35.27,16.85-76.56,25.61-115.78,24.76-75.92-1.66-154.87-56.73-161.5-136.54-3.01-36.29,7.74-66.26,33.8-91.04-.69-9.62-8.27-17.48-13.01-25.5-17.42-29.46-13.98-63.78,23.93-68.64Z"/>
  </g>
</svg>