<?xml version="1.0" encoding="UTF-8"?>
<svg id="Layer_1" data-name="Layer 1" xmlns="http://www.w3.org/2000/svg" viewBox="0 0 3017.85 1235.03">
  <defs>
    <style>
      .cls-1, .cls-2, .cls-3 {
        font-family: Poppins-Regular, Poppins;
        stroke-width: 0px;
      }

      .cls-1, .cls-4, .cls-5 {
        font-family: Poppins-Regular, Poppins;
        fill: #fff3e7;
      }

      .cls-6 {
        font-family: Poppins-Regular, Poppins;
        font-size: 169.16px;
      }

      .cls-2 {
        font-family: Poppins-Regular, Poppins;
        fill: #db6c51;
      }

      .cls-3 {
        font-family: Poppins-Regular, Poppins;
        fill: #db8451;
      }

      .cls-4, .cls-5, .cls-7 {
        font-family: Poppins-Regular, Poppins;
      }

      .cls-5 {
        font-family: Poppins-Regular, Poppins;
        letter-spacing: 0em;
      }

      .cls-8 {
        font-family: Poppins-Regular, Poppins;
        font-size: 1051.62px;
      }

      .cls-8, .cls-9, .cls-10 {
        fill: #db9c51;
        font-family: Poppins-Bold, Poppins;
        font-weight: 700;
      }

      .cls-10 {
        font-family: Poppins-Regular, Poppins;
        letter-spacing: 0em;
      }
    </style>
  </defs>
  <text class="cls-8" transform="translate(-8.81 890.5)"><tspan x="0" y="0">IBIS</tspan></text>
  <text class="cls-6" transform="translate(56.39 1109.78)"><tspan class="cls-9" x="0" y="0">I</tspan><tspan class="cls-5" x="49.9" y="0">nteractive</tspan><tspan class="cls-7" x="907.7" y="0"> </tspan><tspan class="cls-10" x="952.87" y="0">B</tspan><tspan class="cls-5" x="1064.34" y="0">ot for</tspan><tspan class="cls-7" x="1506.35" y="0"> </tspan><tspan class="cls-9" x="1551.52" y="0">I</tspan><tspan class="cls-4" x="1601.42" y="0">n-depth</tspan><tspan class="cls-7" x="2306.31" y="0"> </tspan><tspan class="cls-10" x="2351.47" y="0">S</tspan><tspan class="cls-4" x="2455.5" y="0">tudy</tspan></text>
  <g>
    <path class="cls-2" d="m2130.92,133.38l1.28,1.39c-1.62,22.48,11.22,56.03,24.8,72.67l-1.02.96c-8.95,2.78-18.07,9.24-25.92,14.22-48.77,30.92-105.44,89.82-132.69,142.36l-8.92,15.43c-7.42-18.94,4.08-68.62,9.69-86.99,20.9-68.4,69.69-126.48,132.78-160.04Z"/>
    <path class="cls-3" d="m2487.23,646.43l6.87-.35c6.27,8.27,20.94,32.19,23.11,41.34l.21.9c.48,2.05.38,3.58.05,5.67l-.16,1.01c-1.33,8.51-4.93,16.74-7.49,24.96l-47.05,151.31c-1.01,3.5-1.69,7.17-2.94,10.57l26.19.49c4.48.01,9.79-.48,14.16.59,23.23,5.68,20.07,40.22-8.75,41.01l-192.79.07c-7.35,0-15.69.77-22.94-.36-18.91-2.94-26.82-41.3,9.46-41.32h73.95s22,.06,22,.06c1.17-3.74.39-9.82.4-13.82v-155.63c0-21.81-1-44.07.34-65.82,8.89,2.13,18.83,1.89,27.94,2.21,11.64.42,13.44-2.23,13.5,9.33l.1,174.94c0,7.9-.41,15.94.9,23.76l48.75-164.68c1.44-4.97-14.68-37.98-17.71-43.45l31.87-2.8Z"/>
    <path class="cls-1" d="m2222.52,68.64c41.35-3.48,64.5,27.18,77.83,62.75,24.23,64.67,9.25,143.54-25.26,202.28-2.73,4.65-6.08,8.95-8.32,13.87l-.35.8c-4.21,9.27,3.16,19.95,12.68,21.35,7.45,1.1,16.21-6.97,21.96-10.95,64.93-45,147.69-55.78,222.17-30.47,27.19,9.24,52.44,24.14,78.35,36.4l89.57,37.96c22.76,8.23,38.97,6.15,62.91,2.49l75.77-12.65c6.08-.91,14.3-2.83,19.11,2.4-4.61,8.31-14.91,15.78-22.2,21.81l-96.81,80.2-37.58,30.76c-22.76,18.64-45.41,36.03-72.16,48.81-60.32,28.81-130.91,43.8-197.98,42.33-129.82-2.83-264.83-97.01-276.16-233.48-5.15-62.06,13.24-113.3,57.8-155.69-1.18-16.44-14.14-29.89-22.25-43.61-29.79-50.38-23.9-109.06,40.93-117.37Z"/>
  </g>
  <text class="cls-6" transform="translate(56.39 1109.78)"><tspan class="cls-9" x="0" y="0">I</tspan><tspan class="cls-5" x="49.9" y="0">nteractive</tspan><tspan class="cls-7" x="907.7" y="0"> </tspan><tspan class="cls-10" x="952.87" y="0">B</tspan><tspan class="cls-5" x="1064.34" y="0">ot for</tspan><tspan class="cls-7" x="1506.35" y="0"> </tspan><tspan class="cls-9" x="1551.52" y="0">I</tspan><tspan class="cls-4" x="1601.42" y="0">n-depth</tspan><tspan class="cls-7" x="2306.31" y="0"> </tspan><tspan class="cls-10" x="2351.47" y="0">S</tspan><tspan class="cls-4" x="2455.5" y="0">tudy</tspan></text>
</svg>